<mxfile host="app.diagrams.net" modified="2023-08-09T17:18:29.664Z" agent="Mozilla/5.0 (Windows NT 10.0; Win64; x64; rv:109.0) Gecko/20100101 Firefox/116.0" etag="SQqS3qEAHtch_1Y2oMxf" version="21.6.6" type="github">
  <diagram name="Page-1" id="Q7LPxqIHuv_cpELlYRCS">
    <mxGraphModel dx="1034" dy="423" grid="1" gridSize="10" guides="1" tooltips="1" connect="1" arrows="1" fold="1" page="1" pageScale="1" pageWidth="850" pageHeight="1100" math="0" shadow="0">
      <root>
        <mxCell id="0" />
        <mxCell id="1" parent="0" />
        <mxCell id="8BJWhGXCUrjtmx8MCfsU-1" value="" style="whiteSpace=wrap;html=1;aspect=fixed;" vertex="1" parent="1">
          <mxGeometry x="120" y="70" width="170" height="170" as="geometry" />
        </mxCell>
        <mxCell id="8BJWhGXCUrjtmx8MCfsU-2" value="" style="whiteSpace=wrap;html=1;aspect=fixed;" vertex="1" parent="1">
          <mxGeometry x="360" y="70" width="170" height="170" as="geometry" />
        </mxCell>
        <mxCell id="8BJWhGXCUrjtmx8MCfsU-3" value="" style="whiteSpace=wrap;html=1;aspect=fixed;" vertex="1" parent="1">
          <mxGeometry x="580" y="70" width="170" height="170" as="geometry" />
        </mxCell>
        <mxCell id="8BJWhGXCUrjtmx8MCfsU-4" value="" style="whiteSpace=wrap;html=1;aspect=fixed;" vertex="1" parent="1">
          <mxGeometry x="120" y="340" width="170" height="170" as="geometry" />
        </mxCell>
        <mxCell id="8BJWhGXCUrjtmx8MCfsU-5" value="" style="whiteSpace=wrap;html=1;aspect=fixed;" vertex="1" parent="1">
          <mxGeometry x="360" y="340" width="170" height="170" as="geometry" />
        </mxCell>
        <mxCell id="8BJWhGXCUrjtmx8MCfsU-6" value="" style="whiteSpace=wrap;html=1;aspect=fixed;" vertex="1" parent="1">
          <mxGeometry x="590" y="330" width="170" height="170" as="geometry" />
        </mxCell>
        <mxCell id="8BJWhGXCUrjtmx8MCfsU-7" value="CTC host 1" style="text;html=1;strokeColor=none;fillColor=none;align=center;verticalAlign=middle;whiteSpace=wrap;rounded=0;" vertex="1" parent="1">
          <mxGeometry x="160" y="20" width="60" height="30" as="geometry" />
        </mxCell>
        <mxCell id="8BJWhGXCUrjtmx8MCfsU-8" value="CTC host 2" style="text;html=1;strokeColor=none;fillColor=none;align=center;verticalAlign=middle;whiteSpace=wrap;rounded=0;" vertex="1" parent="1">
          <mxGeometry x="390" y="20" width="60" height="30" as="geometry" />
        </mxCell>
        <mxCell id="8BJWhGXCUrjtmx8MCfsU-9" value="CTC host 3" style="text;html=1;strokeColor=none;fillColor=none;align=center;verticalAlign=middle;whiteSpace=wrap;rounded=0;" vertex="1" parent="1">
          <mxGeometry x="630" y="20" width="60" height="30" as="geometry" />
        </mxCell>
      </root>
    </mxGraphModel>
  </diagram>
</mxfile>
